<svg height="512" viewBox="0 0 512 512" width="512" xmlns="http://www.w3.org/2000/svg"><g id="FilledOutline"><g fill="#d4342f"><path d="m64 272h-24a16 16 0 0 1 -16-16 16 16 0 0 1 16-16h24z"/><path d="m240 64v-24a16 16 0 0 1 16-16 16 16 0 0 1 16 16v24z"/><path d="m240 448v24a16 16 0 0 0 16 16 16 16 0 0 0 16-16v-24z"/><path d="m448 272h24a16 16 0 0 0 16-16 16 16 0 0 0 -16-16h-24z"/></g><path d="m422.86 145.71a200.093 200.093 0 1 0 33.14 110.29 200.77 200.77 0 0 0 -33.14-110.29zm-109.15 224.57a127.928 127.928 0 1 1 56.57-56.57 127.519 127.519 0 0 1 -56.57 56.57z" fill="#eb5849"/><path d="m198.29 141.72a128.591 128.591 0 0 0 -56.57 56.57l-52.58-52.58a200.77 200.77 0 0 1 56.57-56.57z" fill="#e3e4e2"/><path d="m422.86 366.29a200.77 200.77 0 0 1 -56.57 56.57l-52.58-52.58a128.591 128.591 0 0 0 56.57-56.57z" fill="#e3e4e2"/><path d="m422.86 145.71-52.58 52.58a128.591 128.591 0 0 0 -56.57-56.57l52.58-52.58a200.77 200.77 0 0 1 56.57 56.57z" fill="#e3e4e2"/><path d="m198.29 370.28-52.58 52.58a200.77 200.77 0 0 1 -56.57-56.57l52.58-52.58a128.591 128.591 0 0 0 56.57 56.57z" fill="#e3e4e2"/><path d="m462.607 280h9.393a24 24 0 0 0 0-48h-9.393c-11.029-95.549-87.058-171.578-182.607-182.607v-9.393a24 24 0 0 0 -48 0v9.393c-95.549 11.029-171.578 87.058-182.607 182.607h-9.393a24 24 0 0 0 0 48h9.393c11.029 95.549 87.058 171.578 182.607 182.607v9.393a24 24 0 0 0 48 0v-9.393c95.549-11.029 171.578-87.058 182.607-182.607zm-322.768 6.154 19.5 2.293a73.044 73.044 0 0 1 64.219 64.219l2.293 19.5a120.448 120.448 0 0 1 -86.012-86.012zm-36.256-39.932 16.932-1.992c-.334 3.881-.515 7.8-.515 11.77s.181 7.889.515 11.77l-16.932-1.992c.262-3.1.417-6.362.417-9.778s-.155-6.678-.417-9.778zm32.417 9.778a120.792 120.792 0 0 1 .785-13.684l24.418-2.873a88.991 88.991 0 0 0 78.24-78.24l2.873-24.418a119.661 119.661 0 0 1 27.368 0l2.873 24.418a88.991 88.991 0 0 0 78.24 78.24l24.418 2.873a119.661 119.661 0 0 1 0 27.368l-24.415 2.873a88.991 88.991 0 0 0 -78.24 78.24l-2.873 24.418a119.661 119.661 0 0 1 -27.368 0l-2.876-24.415a88.991 88.991 0 0 0 -78.24-78.24l-24.418-2.873a120.792 120.792 0 0 1 -.785-13.687zm89.846-116.161-2.293 19.5a73.044 73.044 0 0 1 -64.219 64.219l-19.5 2.293a120.448 120.448 0 0 1 86.012-86.012zm146.315 86.007-19.5-2.293a73.044 73.044 0 0 1 -64.219-64.219l-2.293-19.5a120.448 120.448 0 0 1 86.012 86.012zm-87.995-102.9-2.566-21.822a86.573 86.573 0 0 0 17.979-5.969l-7.131-14.323c-.148.068-14.839 7.168-36.448 7.168s-36.3-7.1-36.447-7.168l-7.131 14.323a86.573 86.573 0 0 0 17.979 5.969l-2.567 21.817a134.861 134.861 0 0 0 -27.864 9.144l-41.441-41.44a191.6 191.6 0 0 1 194.942 0l-41.441 41.44a134.861 134.861 0 0 0 -27.864-9.144zm-28.166-18.946c3.416 0 6.678-.155 9.778-.417l1.992 16.932c-3.881-.334-7.8-.515-11.77-.515s-7.889.181-11.77.515l1.992-16.932c3.1.262 6.362.417 9.778.417zm152.417 161.778-16.932 1.992c.334-3.881.515-7.8.515-11.77s-.181-7.889-.515-11.77l16.932 1.992c-.262 3.1-.417 6.362-.417 9.778s.155 6.678.417 9.778zm-122.263 106.383 2.293-19.5a73.044 73.044 0 0 1 64.219-64.219l19.5-2.293a120.448 120.448 0 0 1 -86.012 86.012zm-30.154 35.839c-3.416 0-6.678.155-9.778.417l-1.992-16.932c3.881.334 7.8.515 11.77.515s7.889-.181 11.77-.515l-1.992 16.932c-3.1-.262-6.362-.417-9.778-.417zm-28.166-18.941 2.567 21.817a86.573 86.573 0 0 0 -17.979 5.969l7.131 14.323c.147-.068 14.838-7.168 36.447-7.168s36.3 7.1 36.422 7.155l7.156-14.31a86.573 86.573 0 0 0 -17.979-5.969l2.567-21.817a134.861 134.861 0 0 0 27.864-9.144l41.441 41.44a191.6 191.6 0 0 1 -194.942 0l41.441-41.44a134.861 134.861 0 0 0 27.864 9.144zm139.355 23.386-40.377-40.377a137.059 137.059 0 0 0 45.256-45.256l40.377 40.377a193.64 193.64 0 0 1 -45.256 45.256zm104.811-164.445a8 8 0 0 1 0 16h-8.169c.1-2.656.169-5.32.169-8s-.068-5.344-.169-8zm-50.645 105.471-41.441-41.44a134.833 134.833 0 0 0 9.145-27.865l21.817-2.567a86.519 86.519 0 0 0 5.969 17.979l14.322-7.131c-.067-.147-7.167-14.839-7.167-36.447s7.1-36.3 7.167-36.447l-7.167-3.553-7.155-3.578a86.519 86.519 0 0 0 -5.969 17.979l-21.817-2.567a134.833 134.833 0 0 0 -9.145-27.865l41.441-41.44a191.6 191.6 0 0 1 0 194.942zm-8.91-208.66-40.377 40.377a137.059 137.059 0 0 0 -45.256-45.256l40.377-40.377a193.64 193.64 0 0 1 45.256 45.256zm-164.445-104.811a8 8 0 0 1 16 0v8.169c-2.656-.1-5.32-.169-8-.169s-5.344.068-8 .169zm-103.189 59.555 40.377 40.377a137.059 137.059 0 0 0 -45.256 45.256l-40.377-40.377a193.64 193.64 0 0 1 45.256-45.256zm-104.811 164.445a8 8 0 0 1 0-16h8.169c-.1 2.656-.169 5.32-.169 8s.068 5.344.169 8zm50.645-105.471 41.441 41.44a134.833 134.833 0 0 0 -9.145 27.865l-21.817 2.566a86.519 86.519 0 0 0 -5.969-17.979l-14.322 7.131c.067.148 7.167 14.84 7.167 36.448s-7.1 36.3-7.155 36.422l14.31 7.156a86.519 86.519 0 0 0 5.969-17.979l21.817 2.567a134.833 134.833 0 0 0 9.145 27.865l-41.441 41.44a191.6 191.6 0 0 1 0-194.942zm8.91 208.66 40.377-40.377a137.059 137.059 0 0 0 45.256 45.256l-40.377 40.377a193.64 193.64 0 0 1 -45.256-45.256zm164.445 104.811a8 8 0 0 1 -16 0v-8.169c2.656.1 5.32.169 8 .169s5.344-.068 8-.169z"/><path d="m317.8 471.369 4.4 15.381a240.755 240.755 0 0 0 159.147-147.991l-15.018-5.518a224.707 224.707 0 0 1 -148.529 138.128z"/><path d="m471.369 317.8 15.382 4.406c1.559-5.442 2.94-11.013 4.106-16.557l-15.657-3.295c-1.088 5.171-2.377 10.367-3.831 15.446z"/><path d="m194.2 40.631-4.4-15.381a240.755 240.755 0 0 0 -159.147 147.991l15.018 5.518a224.707 224.707 0 0 1 148.529-138.128z"/><path d="m40.631 194.2-15.382-4.4c-1.559 5.442-2.94 11.013-4.106 16.557l15.657 3.289c1.088-5.171 2.377-10.367 3.831-15.446z"/></g></svg>