<svg id="Capa_1" enable-background="new 0 0 512 512" height="512" viewBox="0 0 512 512" width="512" xmlns="http://www.w3.org/2000/svg"><g><g><path clip-rule="evenodd" d="m381.872 332.151c-1.871-11.169-3.685-23.188-5.187-35.689-1.502-12.671-2.693-25.824-3.288-39.119-.567-12.926-.539-25.966.283-38.807.624-9.355 1.672-18.567 3.232-27.582-3.543-12.133-28.346-18.284-37.871-4.365-2.551 7.739-5.329 17.32-8.107 28.007-3.061 11.651-6.094 24.634-8.816 38.042-2.551 12.586-4.819 25.598-6.548 38.24-1.474 10.715-2.551 21.232-3.061 31.012 1.361 21.204 30.898 29.339 69.591 11.934-.03-.199-.2-1.446-.228-1.673z" fill="#ffbc85" fill-rule="evenodd"/></g><g><path clip-rule="evenodd" d="m336.333 161.983c.482-5.131-1.333-6.265-5.371-11.566-22.422-12.048-42.435-13.833-50.854-14.004-24.661 5.301-46.233 24.69-54.51 64.518l49.975-9.128s18-16.385 49.691-22.451c-.283-1.843 7.232-1.701 7.402-3.657z" fill="#ccf49f" fill-rule="evenodd"/></g><g><path clip-rule="evenodd" d="m500.19 137.604c-25.427-31.154-52.895-38.467-76.762-32.089-20.778 5.528-38.835 21.431-50.428 40.99 2 4.139 5.25 6.705 9.099 7.97 4.609 1.516 7.4 3.283 14.627 1.242 23.443-7.115 42.661-5.301 50.769-3.969z" fill="#ccf49f" fill-rule="evenodd"/></g><g><path clip-rule="evenodd" d="m489.333 225.112c-.879-40.678-18.567-63.668-41.839-73.363-8.107-1.332-27.326-3.147-50.769 3.969.198.255-5.726 8.589-5.726 12.955 0 0 8.221 7.852 8.108 8.079 28.715 11.792 42.746 30.303 42.746 30.303z" fill="#ccf49f" fill-rule="evenodd"/></g><g><path clip-rule="evenodd" d="m346.977 127.286c-8.447-14.032-20.296-25.654-34.498-32.231-22.535-10.432-51.052-8.079-81.61 17.859l49.238 23.5c8.419.17 28.432 1.956 50.854 14.004 5.038 1.332 9.105 1.021 14.038.227 4.167-.68 6.825-7.512 10.142-6.321-2.182-5.926-4.932-11.681-8.164-17.038z" fill="#ccf49f" fill-rule="evenodd"/></g><g><path clip-rule="evenodd" d="m441.853 207.055s-14.712-19.39-44.787-31.125c.652-1.758 1.077-3.628 1.247-5.584.255-2.891-.028-5.726-.794-8.362 24.917 8.986 46.063 22.621 53.291 32.684l37.417 15.931c.624 4.564.992 9.411 1.105 14.514z" fill="#b3e59f" fill-rule="evenodd"/></g><g><path clip-rule="evenodd" d="m447.494 151.749 52.696-14.145c-3.6-4.394-7.228-8.306-10.885-11.792l-47.934 11.197c-8.079-1.332-32.513-4.054-55.049 10.432h-.028c4.195 1.616 7.88 4.564 10.432 8.277 23.442-7.115 42.661-5.301 50.768-3.969z" fill="#b3e59f" fill-rule="evenodd"/></g><g><path clip-rule="evenodd" d="m373 146.505c11.594-19.56 29.65-35.462 50.428-40.99l30.841-41.699c-39.798-11.055-66.529-1.134-85.38 22.224-8.872 11.027-16.016 25.031-21.912 41.245.539 7.69-.161 18.539 2.022 24.464 3.685 1.276 20.797-4.478 24.001-5.244z" fill="#ccf49f" fill-rule="evenodd"/></g><g><path clip-rule="evenodd" d="m373 146.505c11.594-19.56 29.65-35.462 50.428-40.99l30.841-41.699c-9.213-2.551-17.688-3.997-25.569-4.394l-25.285 38.496c-23.386 7.682-32.769 21.912-45.354 47.68 2.409 1.276 4.535 3.033 6.265 5.046 2.522-1.956 5.47-3.373 8.674-4.139z" fill="#b3e59f" fill-rule="evenodd"/></g><g><path clip-rule="evenodd" d="m400.581 170.515c.482-5.131-.794-10.007-3.345-14.032-3.6-5.755-9.751-9.808-17.036-10.46-1.899-.198-3.77-.113-5.584.17-3.798.595-7.342 2.183-10.29 4.479-9.411 8.419-10.233 23.642-2.976 32.826 3.657 4.082 8.844 6.86 14.74 7.399 10.233.935 19.843-5.159 23.301-14.854.623-1.729 1.02-3.6 1.19-5.528z" fill="#ce9875" fill-rule="evenodd"/></g><g><path clip-rule="evenodd" d="m361.349 183.498c4.762-3.713 8.022-9.27 8.617-15.761.964-10.46-5.443-20.183-15.392-23.472-1.587-.51-3.26-.85-4.989-1.021-7.257-.68-14.031 2.183-18.624 7.172-3.26 3.515-5.414 8.079-5.896 13.21-.17 1.956-.085 3.884.198 5.726 1.276 7.739 6.548 14.287 13.776 17.235 2.013.794 4.167 1.332 6.435 1.559 5.926.54 11.51-1.274 15.875-4.648z" fill="#ce9875" fill-rule="evenodd"/></g><g><path clip-rule="evenodd" d="m343.718 143.472c-.624.113-1.247.227-1.843.397 3.912 1.417 7.228 3.884 9.723 6.973 3.628 4.422 5.499 10.233 4.961 16.243-.312 3.402-1.361 6.52-2.948 9.27-1.474 2.523-3.402 4.706-5.669 6.491-2.409 1.843-5.187 3.232-8.164 4.025 1.786.652 3.685 1.077 5.698 1.276 5.924.539 11.509-1.276 15.874-4.649 18.027-14.003 5.81-44.023-17.632-40.026z" fill="#c6865c" fill-rule="evenodd"/></g><g><path clip-rule="evenodd" d="m380.2 146.023c-2.324-.227-4.677-.085-6.945.425.539.17 1.105.369 1.616.567 20.778 8.079 18.34 38.212-3.288 43.003 1.729.539 3.543.85 5.329.935 9.95.567 19.106-5.528 22.479-14.911 4.846-13.606-4.253-28.658-19.191-30.019z" fill="#c6865c" fill-rule="evenodd"/></g><g><path clip-rule="evenodd" d="m373.68 218.536c.624-9.355 1.672-18.567 3.232-27.582-.255 0-.539-.028-.822-.057-1.474-.113-2.948-.397-4.365-.822-.028-.028-.085-.028-.142-.057-4.025-1.219-7.54-3.515-10.233-6.52-1.616 1.247-3.43 2.296-5.357 3.09-1.134 10.517-1.928 20.523-2.409 30.105z" fill="#f5a96c" fill-rule="evenodd"/></g><g><path clip-rule="evenodd" d="m373.396 257.343c-.567-12.926-.539-25.966.283-38.807l-20.098-1.843c-.709 13.777-.822 26.675-.51 38.779z" fill="#f5a96c" fill-rule="evenodd"/></g><g><path clip-rule="evenodd" d="m376.685 296.462c-1.502-12.671-2.693-25.824-3.288-39.119l-20.324-1.871c.368 13.975 1.332 26.902 2.636 39.062z" fill="#f5a96c" fill-rule="evenodd"/></g><g><path clip-rule="evenodd" d="m381.872 332.151c-1.871-11.169-3.685-23.188-5.187-35.689l-20.976-1.928c1.559 14.599 3.572 28.064 5.669 40.763 4.309.312 9.638.085 16.724-.992 1.304-.198 2.636-.34 3.997-.482-.029-.198-.199-1.445-.227-1.672z" fill="#f5a96c" fill-rule="evenodd"/></g><g><path clip-rule="evenodd" d="m28.958 452.655h237.77 237.77c-29.876-187.97-445.691-187.97-475.54 0z" fill="#fde588" fill-rule="evenodd"/></g><g><path clip-rule="evenodd" d="m28.958 364.24h33.987v88.415h-33.987z" fill="#ce9875" fill-rule="evenodd"/></g><g><path clip-rule="evenodd" d="m240.055 364.24h33.987v88.415h-33.987z" fill="#ce9875" fill-rule="evenodd"/></g><g><path clip-rule="evenodd" d="m28.667 382.167h34.279v20.809h-34.279z" fill="#c6865c" fill-rule="evenodd"/></g><g><path clip-rule="evenodd" d="m239.909 382.167h34.279v20.809h-34.279z" fill="#c6865c" fill-rule="evenodd"/></g><g><path clip-rule="evenodd" d="m504.499 452.655c-9.609-60.493-59.216-101.512-123.052-123.055-7.172-2.438-14.513-4.592-22.025-6.548-14.995-3.855-30.558-6.718-46.432-8.618-13.068-1.559-26.334-2.466-39.6-2.665v3.997c13.408 1.984 26.589 4.677 39.317 8.079 16.895 4.507 33.052 10.29 47.991 17.32 49.521 23.33 86.032 60.493 94.139 111.49z" fill="#fdd76f" fill-rule="evenodd"/></g><g><path clip-rule="evenodd" d="m343.718 143.472c.057-.028.085-.028.142-.028-.057 0-.086 0-.142.028zm.141-.028h.028s.001 0-.028 0zm-31.379-48.389c-22.535-10.432-51.052-8.079-81.61 17.859l11.849 5.641c23.924-13.947 46.063-13.862 64.261-5.443 13.833 6.378 25.398 17.575 33.789 31.069.368-.113.737-.227 1.105-.312.595-.17 1.219-.312 1.843-.397.057-.028.085-.028.142-.028h.028c4.139-.68 7.937-.312 11.254.879-2.183-5.925-4.932-11.679-8.164-17.037-8.447-14.032-20.296-25.655-34.497-32.231z" fill="#b3e59f" fill-rule="evenodd"/></g><g><path clip-rule="evenodd" d="m280.051 136.414c-24.633 5.329-46.176 24.719-54.454 64.518l10.602-1.928c10.233-28.546 28.913-43.145 49.776-47.623 7.002.142 21.997 1.417 39.713 8.731.935-3.713 2.778-7.03 5.272-9.695-22.422-12.048-42.435-13.833-50.854-14.004h-.055z" fill="#b3e59f" fill-rule="evenodd"/></g><g><path clip-rule="evenodd" d="m273.39 346.268v-157.865l-24.18-21.657-24.18 25.994-24.151-25.994-24.179 25.994-24.18-25.994-24.18 25.994-24.151-25.994-24.179 25.994-24.18-25.994-24.18 21.657v157.865h.765c58.961 13.044 121.521 17.972 121.521 17.972s67.73-7.932 119.454-17.972z" fill="#ffbc85" fill-rule="evenodd"/></g><g><path clip-rule="evenodd" d="m297.541 197.332c0-39.176-32.343-130.426-145.021-130.426s-145.02 91.25-145.02 130.426v9.071h24.151l24.18-21.657 24.18 25.994 24.18-25.994 24.151 25.994 24.18-25.994 24.18 25.994 24.18-25.994 24.151 25.994 24.18-25.994 24.18 21.657h24.151v-9.071z" fill="#ce9875" fill-rule="evenodd"/></g><g><path clip-rule="evenodd" d="m227.412 346.268v-57.035c0-18.794-15.392-34.158-34.186-34.158-18.765 0-34.158 15.364-34.158 34.158v57.035z" fill="#ce9875" fill-rule="evenodd"/></g><g><path clip-rule="evenodd" d="m274.042 346.268h-241.597-6.973c-9.893 0-17.972 8.079-17.972 17.972s8.079 17.972 17.972 17.972h6.973 33.987 173.622 33.987 8.362c9.893 0 17.972-8.079 17.972-17.972s-8.079-17.972-17.972-17.972z" fill="#eff6ff" fill-rule="evenodd"/></g><g><path clip-rule="evenodd" d="m292.864 167.227c-18.595-65.085-73.077-100.321-140.343-100.321-25.569 0-47.027 4.706-64.885 12.416 12.586-3.061 26.532-4.791 42.009-4.791 72.255 0 111.487 37.56 130.337 74.808 8.277 16.385 14.683 38.609 14.683 57.063h22.876c0-14.456-.595-24.86-4.677-39.175z" fill="#c6865c" fill-rule="evenodd"/></g><g><path clip-rule="evenodd" d="m273.39 311.713v-105.31l-13.153-11.793-11.027-9.864v127.591 33.931h24.18v-34.498z" fill="#f5a96c" fill-rule="evenodd"/></g><g><path clip-rule="evenodd" d="m282.404 382.213c9.893 0 17.972-8.079 17.972-17.972s-8.079-17.972-17.972-17.972h-8.362-.652-29.735c9.893 0 18 8.079 18 17.972 0 9.865-8.05 17.915-17.887 17.972h30.274z" fill="#d9eeff" fill-rule="evenodd"/></g><g><path clip-rule="evenodd" d="m74.369 252.637h34.016c2.693 0 4.904 2.211 4.904 4.904v34.017c0 2.693-2.211 4.904-4.904 4.904h-34.016c-2.693 0-4.904-2.211-4.904-4.904v-34.017c0-2.693 2.211-4.904 4.904-4.904z" fill="#ce9875" fill-rule="evenodd"/></g><g><path clip-rule="evenodd" d="m193.226 255.075c-18.765 0-34.158 15.364-34.158 34.158v19.985c0-18.766 15.392-34.158 34.158-34.158 18.737 0 34.072 15.279 34.158 33.988v-19.815c0-18.794-15.364-34.158-34.158-34.158z" fill="#c6865c" fill-rule="evenodd"/></g><g><path d="m335.922 358.016c-4.142 0-7.5 3.358-7.5 7.5s3.358 7.5 7.5 7.5h.114c4.142 0 7.5-3.358 7.5-7.5s-3.358-7.5-7.5-7.5z"/><path d="m386.294 396.625c-4.142 0-7.5 3.358-7.5 7.5s3.358 7.5 7.5 7.5h.113c4.142 0 7.5-3.358 7.5-7.5s-3.358-7.5-7.5-7.5z"/><path d="m110.483 138.527c4.142 0 7.5-3.358 7.5-7.5v-10.091c0-4.142-3.358-7.5-7.5-7.5s-7.5 3.358-7.5 7.5v10.091c0 4.142 3.358 7.5 7.5 7.5z"/><path d="m152.521 127.472c4.142 0 7.5-3.358 7.5-7.5v-10.092c0-4.142-3.358-7.5-7.5-7.5s-7.5 3.358-7.5 7.5v10.092c0 4.142 3.358 7.5 7.5 7.5z"/><path d="m69.465 154.119c4.142 0 7.5-3.358 7.5-7.5v-10.092c0-4.142-3.358-7.5-7.5-7.5s-7.5 3.358-7.5 7.5v10.092c0 4.142 3.358 7.5 7.5 7.5z"/><path d="m194.559 138.527c4.142 0 7.5-3.358 7.5-7.5v-10.091c0-4.142-3.358-7.5-7.5-7.5s-7.5 3.358-7.5 7.5v10.091c0 4.142 3.358 7.5 7.5 7.5z"/><path d="m227.582 155.309c4.142 0 7.5-3.358 7.5-7.5v-10.092c0-4.142-3.358-7.5-7.5-7.5s-7.5 3.358-7.5 7.5v10.092c0 4.142 3.358 7.5 7.5 7.5z"/><path d="m108.385 245.137h-34.016c-6.84 0-12.404 5.564-12.404 12.404v34.017c0 6.839 5.564 12.404 12.404 12.404h34.016c6.84 0 12.404-5.564 12.404-12.404v-34.017c0-6.839-5.564-12.404-12.404-12.404zm-2.596 43.825h-28.824v-28.825h28.824z"/><path d="m152.521 405.979h-.113c-4.142 0-7.5 3.358-7.5 7.5s3.358 7.5 7.5 7.5h.113c4.142 0 7.5-3.358 7.5-7.5s-3.358-7.5-7.5-7.5z"/><path d="m511.909 451.475c-5.59-35.21-23.95-65.53-54.56-90.11-3.23-2.59-7.95-2.07-10.54 1.16-2.6 3.23-2.08 7.95 1.15 10.54 25.04 20.11 40.97 44.32 47.44 72.09h-213.857v-55.443h.862c14.045 0 25.472-11.427 25.472-25.472s-11.427-25.472-25.472-25.472h-1.514v-19.298c8.136.293 34.129 2.725 39.049 3.425 19.18 2.7 37.59 6.87 54.8 12.39 4.15 1.32 8.23 2.73 12.24 4.23 12.52 4.64 24.29 10.04 35.12 16.15 1.16.66 2.43.97 3.67.97 2.62 0 5.17-1.38 6.54-3.82 2.04-3.6.77-8.18-2.84-10.22-12.67-7.15-26.53-13.38-41.33-18.61-5.57-34.91-11.17-82.83-4.77-125.94 5.1-.89 9.9-3.1 13.98-6.5 1.86-1.55 3.5-3.29 4.91-5.18 22.28 10.7 33.51 25.08 33.62 25.22.85 1.12 1.99 1.98 3.31 2.48l47.48 18.06c.86.33 1.77.49 2.66.49 1.53 0 3.05-.47 4.33-1.38 2.04-1.43 3.23-3.79 3.17-6.29-.68-31.4-11.23-55.8-30.11-70.59l35.42-9.51c2.45-.66 4.41-2.52 5.19-4.94s.28-5.07-1.33-7.04c-24.12-29.57-48.44-36.79-66.14-36.95l20.44-27.64c1.47-1.99 1.87-4.57 1.06-6.9-.8-2.34-2.7-4.13-5.08-4.79-29.83-8.28-55.03-5.71-74.9 7.67-14.59 9.82-26.51 25.44-36.23 47.47-9.65-11.8-21.6-20.78-34.65-25.62-18.94-7.03-39.48-5.46-59.68 4.51-21.54-16.93-53.1-31.21-98.3-31.21-64.42 0-101.15 29-120.62 53.34-23.549 29.421-31.899 63.96-31.899 84.59v9.07c0 4.14 3.36 7.5 7.5 7.5h16.651v124.897c-13.433.689-24.151 11.836-24.151 25.438 0 12.68 9.314 23.222 21.458 25.153v55.762h-9.678c-4.142 0-7.5 3.358-7.5 7.5s3.358 7.5 7.5 7.5h262.262c.005 0 230.457-.001 230.457-.001 2.19 0 4.28-.96 5.7-2.63 1.43-1.669 2.05-3.879 1.71-6.049zm-197.22-199.78c-2.52 12.53-7.96 49.35-8.47 54.46-8.348-.831-16.8-1.388-25.329-1.684v-90.566h16.649c4.14 0 7.5-3.36 7.5-7.5v-9.07c0-4.09-.33-8.73-1.04-13.75 5.22-2.21 10.64-4.02 16.21-5.43 2.19 4.76 5.59 8.89 9.85 11.94-5.2 16.79-15.33 61.22-15.37 61.6zm-21.93-106.559c7.43 1.22 16.94 3.62 27.34 8.29-1.32 2.94-2.19 6.14-2.5 9.52-.02.14-.02.28-.03.42-5.67 1.38-11.22 3.13-16.59 5.25-1.94-7.49-4.64-15.43-8.22-23.48zm73.06 80.209c-.33 7.93-.37 15.88-.19 23.75l-34.45-3.16c1.72-7.99 3.53-15.82 5.4-23.29zm-25.36-17.4c1.21-4.35 2.42-8.51 3.61-12.41.24.02.48.06.72.08.94.09 1.87.13 2.79.13 4.52 0 8.93-1.02 12.95-2.96 2.4 1.74 5.05 3.12 7.86 4.08-.65 4.47-1.17 8.97-1.59 13.5zm25.79 56.27c.48 8.17 1.15 16.18 1.96 23.94l-44.07-4.03c1.17-7.72 2.54-15.58 4.04-23.4zm-45.14 43.71c.29-2.92.62-5.9.99-8.92l47.9 4.38c.69 5.32 1.41 10.47 2.16 15.41-16.21-4.76-33.34-8.42-51.05-10.87zm72-138.089c-.36 3.99-2.26 7.61-5.35 10.18s-6.99 3.78-10.99 3.41c-1.48-.13-2.91-.49-4.27-1.03 2.77-4.12 4.47-8.89 4.94-13.97.46-5.1-.36-10.12-2.35-14.69 1.44-.3 2.92-.39 4.43-.24 4.01.36 7.64 2.27 10.21 5.36.26.32.5.64.73.98.07.1.15.21.22.31 1.9 2.849 2.76 6.22 2.43 9.69zm87.98 44.119-34.71-13.2c-4.09-4.78-16.79-18.11-38.47-28.32.05-.4.1-.81.14-1.22.33-3.58.03-7.12-.86-10.49 17.59-3.93 31.78-2.69 38.22-1.71 20.4 8.851 32.6 27.71 35.68 54.94zm5.37-80.429-39.38 10.57c-9.55-1.39-26.81-2.4-47.72 3.09-3.55-3.54-7.86-6.11-12.61-7.51 10.71-13.61 24.23-23.06 38.46-26.88.07-.01.13-.03.2-.05 3.29-.87 6.63-1.44 9.97-1.69 17.66-1.33 35.15 6.41 51.08 22.47zm-96.7-56.83c13.95-9.39 30.94-12.09 51.71-8.18l-22.57 30.51c-19.72 6.04-37.91 20.61-50.8 41.11-1 .36-1.97.77-2.93 1.23-1.29-.94-2.65-1.77-4.07-2.48-1.71-4.26-3.67-8.36-5.85-12.27 9.23-24.15 20.53-40.51 34.51-49.92zm-42.24 73.96c.46 0 .92.02 1.38.06 8.25.75 14.35 8.08 13.6 16.34-.37 4.01-2.27 7.63-5.36 10.21-3.08 2.56-6.98 3.78-10.97 3.41-8.27-.77-14.39-8.11-13.63-16.37.3-3.33 1.69-6.32 3.78-8.64.05-.06.1-.12.16-.18 2.77-2.99 6.73-4.83 11.04-4.83zm-42.24-50.49c13.88 5.15 26.32 16.21 35.18 30.82.06.11 1.97 3.39 2.8 4.98-4.93.7-9.52 2.62-13.41 5.46-19.01-9.24-36-11.72-45.39-12.33-3.31-5.54-7.06-11.03-11.32-16.35-2.93-3.67-6.27-7.45-10.03-11.22 14.58-5.87 28.73-6.35 42.17-1.36zm-290.279 98.739v-1.57c0-40.11 33.62-122.93 137.52-122.93 90.14 0 127.37 62.32 135.66 105.02.03.67.15 1.35.37 2.01 1.01 5.76 1.49 11.13 1.49 15.9v1.57h-13.78l-22.05-19.75c-3.04-2.72-7.71-2.51-10.49.48l-18.688 20.087-.012-.007-18.681-20.08c-1.42-1.52-3.4-2.39-5.49-2.39-1.04 0-2.06.22-2.99.63-.94.4-1.79 1-2.5 1.77l-18.66 20.08-18.69-20.09c-1.42-1.52-3.41-2.39-5.49-2.39s-4.07.87-5.49 2.39l-18.688 20.088-.011-.008-18.651-20.07c-1.41-1.53-3.4-2.4-5.49-2.4-1.04 0-2.06.22-2.99.63-.94.4-1.79 1-2.5 1.76l-18.69 20.09-18.69-20.09c-2.78-2.99-7.45-3.2-10.49-.48l-22.05 19.75zm250.89 112.758v27.105h-31.006v-49.535c0-22.971-18.687-41.659-41.658-41.659s-41.658 18.688-41.658 41.659v49.535h-112.417v-129.014l16.199-14.509 19.17 20.6c1.42 1.53 3.41 2.39 5.49 2.39s4.07-.86 5.49-2.39l18.69-20.08 18.66 20.08c1.412 1.521 3.378 2.378 5.454 2.388.012 0 .022.006.034.006h.002c.022 0 .04-.007.062-.008 1.018-.009 2.016-.225 2.927-.617.94-.41 1.79-1 2.5-1.77l18.69-20.09 18.69 20.09c1.42 1.53 3.41 2.39 5.49 2.39 1.04 0 2.06-.22 3-.62.94-.41 1.79-1 2.5-1.77l18.608-20.034.051-.037 18.682 20.071c1.42 1.53 3.41 2.39 5.49 2.39s4.07-.86 5.49-2.39l19.17-20.6 16.182 14.486.019.023v101.882c0 .003-.001.006-.001.009-.001.007 0 .013 0 .019zm-46.006 27.105h-53.315v-49.535c0-14.7 11.958-26.659 26.658-26.659 14.699 0 26.658 11.959 26.658 26.659v49.535zm-164.438 106.387h-18.988v-55.443h18.987v55.443zm211.096 0h-18.987v-55.443h18.987zm-95.965-70.443c-4.142 0-7.5 3.358-7.5 7.5s3.358 7.5 7.5 7.5h61.977v55.443h-162.108v-55.443h65.52c4.142 0 7.5-3.358 7.5-7.5s-3.358-7.5-7.5-7.5h-110.494c-5.774 0-10.472-4.698-10.472-10.472s4.698-10.472 10.472-10.472h133.597 68.315 55.02c5.774 0 10.472 4.698 10.472 10.472s-4.698 10.472-10.472 10.472z"/></g></g></svg>