<svg id="Capa_1" enable-background="new 0 0 512 512" height="512" viewBox="0 0 512 512" width="512" xmlns="http://www.w3.org/2000/svg"><g><g><path d="m275.753 51.765h-58.331c-9.617 0-17.412 7.796-17.412 17.412v26.989c0 9.617 7.796 17.412 17.412 17.412h58.331c9.617 0 17.412-7.796 17.412-17.412v-26.989c0-9.616-7.796-17.412-17.412-17.412z" fill="#f6e06e"/><ellipse cx="246.587" cy="273.006" fill="#c2b2eb" rx="189.573" ry="189.573" transform="matrix(.707 -.707 .707 .707 -120.82 254.325)"/><g fill="#9781dd"><path d="m351.073 174.021 75.138 32.787c-19.711-47.178-62.574-91.52-110.242-110.276l29.488 75.362-101.732-10.32v109.093l115.546-.879z"/><path d="m242.361 273.608-107.74-1.456 6.928-94.222c-13.849.728-38.87 13.652-68.056 31.124-16.237 27.949-16.479 29.298-16.479 63.95 0 .701.019 1.397.026 2.096h77.58c-3.755 27.21-2.573 59.04 11.795 103.206 40.049 9.281 74.173 13.912 95.941 8.846 2.726-35.582 1.434-75.712.005-113.544z"/><path d="m180.701 97.237c-17.062 30.626-30.98 58.107-33.43 74.122l96.454-9.785h-2.949v-78.044c-34.226 1.031-32.733-3.144-60.075 13.707z"/><path d="m174.429 446.129-28.013-67.822-73.619-29.487c18.564 42.493 59.625 77.863 101.632 97.309z"/><path d="m243.725 388.706v73.846c.953.014 1.906.027 2.862.027 80.563 0 149.38-50.259 176.83-121.13-44.528 37.716-105.857 51.423-179.692 47.257z"/><path d="m242.361 273.608 1.364.019v-2.96l-1.475.011c.037.973.074 1.954.111 2.93z"/></g><path d="m334.676 135.838c5.932 11.431 9.798 23.931 12.041 36.746 23.436 7.002 45.888 17.822 66.27 31.149 4.59 3.001 9.116 6.154 13.538 9.464-18.999-57.178-64.489-102.263-121.92-120.707 2.375 3.565 4.841 7.068 7.343 10.531 7.738 10.712 16.62 21.047 22.728 32.817z" fill="#8962de"/><path d="m160.999 418.272c-6.084-13.568-10.984-27.51-14.819-41.749-.415-.021-.848-.089-1.303-.228-24.557-7.458-47.842-18.262-71.901-27.058 20.117 45.741 57.776 82.023 104.466 100.32-6.072-10.087-11.605-20.497-16.443-31.285z" fill="#8962de"/><path d="m416.729 346.361c-25.76 19.383-56.55 28.592-87.573 35.824-27.405 6.389-57.289 11.27-85.389 6.1 2.624 24.579 1.335 49.446.906 74.271.638.008 1.274.023 1.914.023 80.77 0 149.73-50.518 177.037-121.676-2.26 1.861-4.548 3.692-6.895 5.458z" fill="#8962de"/><path d="m424.188 209.396c-6.376-3.372-14.094-9.588-20.731-12.25-16.175-6.487-37.269-21.524-54.809-19.767-.322.09-.648.154-.974.186 7.111 17.509 11.036 36.653 11.036 56.715 0 83.311-67.537 150.848-150.848 150.848-77.13 0-140.732-57.891-149.745-132.591-.722 6.725-1.103 13.551-1.103 20.468 0 23.653 4.345 46.288 12.259 67.166 9.634 4.174 18.504 10.412 27.534 15.52 14.3 8.091 29.859 10.935 45.075 16.614 2.264.845 3.409 2.421 3.671 4.821 2.967 27.183 17.549 52.404 35.505 73.8 19.997 7.366 41.575 11.465 64.09 11.633-.948-22.807-1.222-45.648-1.229-68.471-.002-4.407 4.672-5.794 7.63-4.174 23.284-1.507 46.451-4.323 69.433-8.356 31.977-5.612 62.688-17.624 95.669-34.585 13.201-25.84 19.51-42.958 19.51-73.968-.001-27.382-1.525-40.103-11.973-63.609z" fill="#ae85ea"/><path d="m342.007 165.239c-.544-6.506-.705-13.03-1.288-19.559-.837-9.366-3.6-17.745-8.669-25.668-6.22-9.721-14.465-17.867-22.73-25.938-19.637-6.884-40.745-10.641-62.733-10.641-6.916 0-13.743.38-20.468 1.103 50.601 6.105 93.482 37.263 115.888 80.703z" fill="#ae85ea"/><path d="m41.548 428.842 8.68 24.405c.372 1.045 1.107 1.873 2.036 2.291l21.683 9.769c3.063 1.38 3.063 6.261 0 7.641l-21.683 9.769c-.928.418-1.664 1.246-2.036 2.291l-8.68 24.405c-1.226 3.448-5.563 3.448-6.789 0l-8.68-24.405c-.372-1.045-1.107-1.873-2.036-2.291l-21.683-9.769c-3.063-1.38-3.063-6.261 0-7.641l21.683-9.769c.928-.418 1.664-1.246 2.036-2.291l8.68-24.405c1.226-3.448 5.563-3.448 6.789 0z" fill="#faf1a9"/><path d="m458.119 64.98 8.68 24.405c.372 1.045 1.107 1.873 2.036 2.291l21.683 9.769c3.063 1.38 3.063 6.261 0 7.641l-21.683 9.769c-.928.418-1.664 1.246-2.036 2.291l-8.68 24.405c-1.226 3.448-5.563 3.448-6.789 0l-8.68-24.405c-.372-1.045-1.107-1.873-2.036-2.291l-21.683-9.769c-3.063-1.38-3.063-6.261 0-7.641l21.683-9.769c.928-.418 1.664-1.246 2.036-2.291l8.68-24.405c1.226-3.448 5.562-3.448 6.789 0z" fill="#c1e5ef"/><path d="m436.21 428.423 6.438 18.103c.276.775.821 1.389 1.51 1.7l16.084 7.247c2.272 1.024 2.272 4.644 0 5.668l-16.084 7.246c-.689.31-1.234.924-1.51 1.7l-6.438 18.103c-.91 2.558-4.126 2.558-5.036 0l-6.438-18.103c-.276-.775-.821-1.389-1.51-1.7l-16.084-7.246c-2.272-1.024-2.272-4.644 0-5.668l16.084-7.247c.689-.31 1.234-.925 1.51-1.7l6.438-18.103c.909-2.558 4.126-2.558 5.036 0z" fill="#ccf3e2"/><ellipse cx="492.984" cy="364.285" fill="#96b4eb" rx="18.952" ry="18.952" transform="matrix(.099 -.995 .995 .099 81.894 818.974)"/><ellipse cx="29.03" cy="133.571" fill="#d789b9" rx="18.952" ry="18.952" transform="matrix(.232 -.973 .973 .232 -107.632 130.872)"/><circle cx="21.574" cy="399.475" fill="#e8a284" r="8.175"/><ellipse cx="352.616" cy="487.965" fill="#f6e06e" rx="8.175" ry="8.175" transform="matrix(.924 -.383 .383 .924 -159.895 172.085)"/></g><g><path d="m303.731 81.192v-12.015c0-15.427-12.551-27.979-27.979-27.979h-18.599v-30.632c0-5.836-4.73-10.566-10.566-10.566s-10.566 4.731-10.566 10.566v30.633h-18.6c-15.428 0-27.979 12.551-27.979 27.979v12.015c-82.6 24.652-142.995 101.306-142.995 191.813 0 110.357 89.782 200.139 200.139 200.139s200.139-89.782 200.139-200.139c.001-90.507-60.394-167.161-142.994-191.814zm105.866 258.263c-.47.458-.858.836-1.14 1.114-15.601 13.106-32.916 22.017-51.269 28.188 7.193-29.541 9.176-59.876 10.204-89.412h58.078c-.674 19.246-4.388 37.732-10.698 54.982-2.116 2.146-4.102 4.082-5.175 5.128zm-100.313 101.216c-18.516 6.947-38.476 10.908-59.297 11.298v-55.342c28.782-1.397 59.384-3.056 88.796-9.736-5.547 15.838-13.094 31.233-23.436 46.057-2.073 2.849-4.068 5.424-6.063 7.723zm-124.204.453c-2.36-2.612-4.755-5.596-7.253-9.028-10.185-14.6-17.652-29.754-23.175-45.339 27.306 6.55 55.276 8.691 82.655 9.774v55.243c-18.258-.937-35.803-4.622-52.227-10.65zm-106.018-105.053c-6.703-17.747-10.661-36.827-11.357-56.725h58.108c1.041 29.396 3.067 59.568 10.267 88.946-15.992-5.561-31.535-13.148-46.496-23.586-4.07-2.962-7.595-5.768-10.522-8.635zm11.375-128.887c14.469-10.094 29.483-17.514 44.921-23.022-6.063 27.315-7.868 55.616-9.205 82.504h-58.448c.56-15.995 3.222-31.463 7.728-46.133 3.735-4.385 8.601-8.689 15.004-13.349zm92.642-95.102c1.859-1.908 6.518-6.689 10.199-9.977 14.02-4.383 28.776-7.084 44.03-7.867v61.155c-27.81 1.122-56.216 3.364-83.904 10.247 6.183-18.777 15.181-36.491 28.56-52.417.277-.282.656-.67 1.115-1.141zm115.302-10.433c3.799 3.163 9.588 9.103 11.715 11.286.458.47.836.858 1.114 1.14 13.004 15.48 21.882 32.646 28.047 50.839-29.586-6.674-60.364-8.292-89.27-9.693v-61.178c16.793.314 33.026 2.953 48.394 7.606zm112.069 110.788c1.368 1.333 4.215 4.108 6.93 6.929 4.726 15.016 7.514 30.881 8.089 47.3h-58.49c-1.369-27.325-3.254-56.082-9.634-83.758 18.609 6.179 36.167 15.142 51.964 28.414.282.278.67.657 1.141 1.115zm-56.165 54.229h-104.298v-98.75c31.518 1.529 63.548 3.246 93.416 10.9 7.357 28.08 9.389 58.106 10.882 87.85zm-116.977-98.586v98.586h-98.461c1.466-29.403 3.408-59.104 10.464-86.946 28.291-7.981 57.851-10.425 87.997-11.64zm-98.808 111.265h98.808v104.499c-29.82-1.179-59.077-3.508-87.104-11.176-8.371-29.961-10.567-61.34-11.704-93.323zm111.487 104.588v-104.588h104.718c-1.121 32.062-3.256 63.526-11.561 93.57-29.768 7.716-61.705 9.489-93.157 11.018zm156.983-190.364c-16.54-11.631-34.609-19.528-53.39-24.979-5.848-19.735-14.437-38.66-27.269-55.825 34.874 17.422 63.298 45.894 80.659 80.804zm-196.395-124.392c0-3.775 3.071-6.846 6.846-6.846h58.331c3.775 0 6.846 3.071 6.846 6.846v6.942c-11.686-2.132-23.72-3.252-36.012-3.252s-24.326 1.121-36.012 3.252v-6.942zm-44.731 44.096c-12.69 17.369-21.122 36.496-26.829 56.409-18.465 5.801-36.495 13.998-53.691 25.656 17.107-35.377 45.522-64.302 80.52-82.065zm-75.404 247.173c15.992 10.003 32.651 17.181 49.665 22.365 5.075 16.336 12.002 32.34 21.538 47.729-29.839-16.154-54.589-40.543-71.203-70.094zm241.883 69.66c9.227-15.155 15.956-30.896 20.905-46.955 17.257-5.052 33.912-12.164 49.318-22.371-16.464 29.139-40.851 53.233-70.223 69.326z" fill="#3c122c"/><g fill="#fff"><path d="m163.516 331.359c-5.303 0-9.874-3.982-10.486-9.376-.638-5.617-1.143-11.326-1.502-16.968-.37-5.824 4.05-10.845 9.874-11.216 5.825-.359 10.846 4.05 11.216 9.874.337 5.296.812 10.655 1.41 15.928.658 5.798-3.509 11.032-9.307 11.69-.405.045-.807.068-1.205.068z"/><path d="m163.93 241.538c-.362 0-.727-.018-1.096-.057-5.805-.598-10.026-5.789-9.428-11.593 1.107-10.746 2.592-22.039 4.414-33.564.911-5.763 6.323-9.693 12.087-8.787 5.764.911 9.698 6.323 8.787 12.087-1.763 11.151-3.198 22.061-4.267 32.43-.56 5.437-5.148 9.484-10.497 9.484z"/></g></g></g></svg>