<?xml version="1.0" encoding="iso-8859-1"?>
<!-- Generator: Adobe Illustrator 19.0.0, SVG Export Plug-In . SVG Version: 6.00 Build 0)  -->
<svg version="1.1" id="Capa_1" xmlns="http://www.w3.org/2000/svg" xmlns:xlink="http://www.w3.org/1999/xlink" x="0px" y="0px"
	 viewBox="0 0 480 480" style="enable-background:new 0 0 480 480;" xml:space="preserve">
<rect x="8" y="120" style="fill:#50BB65;" width="464" height="352"/>
<polygon style="fill:#E6E6E6;" points="472,328 320,328 320,240 472,240 472,192 272,192 272,328 184,328 184,120 136,120 136,200 
	8,200 8,248 136,248 136,296 136,472 184,472 184,376 336,376 472,376 "/>
<path style="fill:#DA4836;" d="M296,64c0,48-56,96-56,96s-56-48-56-96c0-30.928,25.072-56,56-56S296,33.072,296,64z"/>
<circle style="fill:#E6E6E6;" cx="240" cy="64" r="24"/>
<path style="fill:#DA4836;" d="M152,336c0,48-56,96-56,96s-56-48-56-96c0-30.928,25.072-56,56-56S152,305.072,152,336z"/>
<circle style="fill:#E6E6E6;" cx="96" cy="336" r="24"/>
<path style="fill:#DA4836;" d="M432,328c0,48-56,96-56,96s-56-48-56-96c0-30.928,25.072-56,56-56S432,297.072,432,328z"/>
<circle style="fill:#E6E6E6;" cx="376" cy="328" r="24"/>
<rect x="208" y="400" width="16" height="16"/>
<rect x="208" y="288" width="16" height="16"/>
<rect x="96" y="160" width="16" height="16"/>
<path d="M272,64c0-17.673-14.327-32-32-32s-32,14.327-32,32s14.327,32,32,32S272,81.673,272,64z M224,64c0-8.837,7.163-16,16-16
	c8.837,0,16,7.163,16,16s-7.163,16-16,16C231.163,80,224,72.837,224,64z"/>
<path d="M408,328c0-17.673-14.327-32-32-32s-32,14.327-32,32s14.327,32,32,32S408,345.673,408,328z M360,328c0-8.837,7.163-16,16-16
	s16,7.163,16,16s-7.163,16-16,16S360,336.837,360,328z"/>
<path d="M64,336c0,17.673,14.327,32,32,32s32-14.327,32-32s-14.327-32-32-32S64,318.327,64,336z M112,336c0,8.837-7.163,16-16,16
	s-16-7.163-16-16s7.163-16,16-16S112,327.163,112,336z"/>
<path d="M472,112H289.6c8.789-14.521,13.745-31.038,14.4-48c0-35.346-28.654-64-64-64s-64,28.654-64,64
	c0.655,16.962,5.611,33.479,14.4,48H8c-4.418,0-8,3.582-8,8v352c0,4.418,3.582,8,8,8h464c4.418,0,8-3.582,8-8V120
	C480,115.582,476.418,112,472,112z M240,16c26.499,0.026,47.974,21.501,48,48c0,35.424-34.6,72.192-48,85.112
	c-13.4-12.92-48-49.688-48-85.112C192.026,37.501,213.501,16.026,240,16z M234.8,166.072c2.994,2.561,7.406,2.561,10.4,0
	c12.783-11.394,24.27-24.162,34.256-38.072H464v56H272c-4.418,0-8,3.582-8,8v128h-72V128h8.544
	C210.53,141.91,222.018,154.678,234.8,166.072z M328,328c0-26.51,21.49-48,48-48s48,21.49,48,48c0,35.424-34.6,72.192-48,85.112
	C362.6,400.192,328,363.424,328,328z M439.472,336H464v32h-34.232C434.777,357.954,438.058,347.136,439.472,336z M439.472,320
	c-4.336-35.008-36.23-59.873-71.238-55.538c-15.579,1.929-29.901,9.528-40.234,21.346V248h136v72H439.472z M320,232
	c-4.418,0-8,3.582-8,8v88c0.382,13.93,3.878,27.598,10.232,40H184c-4.418,0-8,3.582-8,8v88h-32v-77.192
	c9.713-15.232,15.232-32.759,16-50.808c-0.002-15.546-5.694-30.554-16-42.192V248c0-4.418-3.582-8-8-8H16v-32h120
	c4.418,0,8-3.582,8-8v-72h32v200c0,4.418,3.582,8,8,8h88c4.418,0,8-3.582,8-8V200h184v32H320z M144,336
	c0,35.424-34.6,72.192-48,85.112C82.6,408.192,48,371.424,48,336c0-26.51,21.49-48,48-48S144,309.49,144,336z M128,128v64H16v-64
	H128z M16,256h112v24.656c-30.503-17.735-69.608-7.384-87.343,23.119C34.967,313.56,31.98,324.681,32,336
	c0,51.096,56.392,100,58.8,102.072c2.994,2.561,7.406,2.561,10.4,0c9.708-8.647,18.673-18.093,26.8-28.24V464H16V256z M192,464v-80
	h139.144c11.125,17.042,24.46,32.534,39.656,46.072c2.994,2.561,7.406,2.561,10.4,0c15.196-13.538,28.531-29.03,39.656-46.072H464
	v80H192z"/>
<g>
</g>
<g>
</g>
<g>
</g>
<g>
</g>
<g>
</g>
<g>
</g>
<g>
</g>
<g>
</g>
<g>
</g>
<g>
</g>
<g>
</g>
<g>
</g>
<g>
</g>
<g>
</g>
<g>
</g>
</svg>
